<svg width="249" height="121" viewBox="0 0 249 121" fill="none" xmlns="http://www.w3.org/2000/svg">
<g id="Frame" clip-path="url(#clip0_42_1882)">
<g id="Group">
<g id="Group_2">
<path id="Vector" d="M33.4949 73.4806H34.9358L38.8269 82.4337H37.1831L36.2864 80.2889H32.1048L31.1941 82.4337H29.601L33.4949 73.4806ZM35.7196 78.9034L34.1914 75.3477L32.6744 78.9034H35.7196Z" fill="#58595B"/>
<path id="Vector_2" d="M39.3711 81.5554L40.0535 80.5127C40.7725 81.0596 41.5564 81.3372 42.2387 81.3372C42.8957 81.3372 43.2736 81.0596 43.2736 80.6147V80.5892C43.2736 80.0679 42.5658 79.8923 41.7819 79.6486C40.7951 79.3681 39.6982 78.963 39.6982 77.6795V77.654C39.6982 76.3847 40.7471 75.6112 42.0752 75.6112C42.9098 75.6112 43.8178 75.903 44.5255 76.3734L43.9193 77.4642C43.2736 77.0703 42.5912 76.8295 42.0357 76.8295C41.4408 76.8295 41.0996 77.11 41.0996 77.5038V77.5293C41.0996 78.011 41.8186 78.215 42.6025 78.47C43.5753 78.7731 44.6749 79.2179 44.6749 80.4249V80.4504C44.6749 81.8585 43.5894 82.5584 42.1993 82.5584C41.2518 82.5584 40.2029 82.2155 39.3711 81.5554Z" fill="#58595B"/>
<path id="Vector_3" d="M45.6139 79.1187V79.0932C45.6139 77.1751 47.1309 75.5885 49.178 75.5885C51.225 75.5885 52.7279 77.1496 52.7279 79.0677V79.0932C52.7279 80.9972 51.211 82.5838 49.1526 82.5838C47.1168 82.5838 45.6139 81.0227 45.6139 79.1187ZM51.1969 79.1187V79.0932C51.1969 77.9118 50.3509 76.9343 49.1498 76.9343C47.9232 76.9343 47.1422 77.9004 47.1422 79.0677V79.0932C47.1422 80.2605 47.9881 81.2522 49.1751 81.2522C50.4158 81.2522 51.1969 80.2747 51.1969 79.1187Z" fill="#58595B"/>
<path id="Vector_4" d="M53.6613 79.1187V79.0932C53.6613 77.1893 55.1275 75.5885 57.1238 75.5885C58.387 75.5885 59.1709 76.0588 59.7912 76.7445L58.8438 77.7729C58.3758 77.2771 57.8823 76.9343 57.1125 76.9343C56.0016 76.9343 55.1923 77.9004 55.1923 79.0677V79.0932C55.1923 80.286 56.0129 81.2522 57.1887 81.2522C57.9077 81.2522 58.4406 80.9094 58.92 80.4135L59.842 81.3287C59.185 82.0653 58.4152 82.5866 57.1125 82.5866C55.1275 82.5838 53.6613 81.0227 53.6613 79.1187Z" fill="#58595B"/>
<path id="Vector_5" d="M61.015 73.2397H62.6588V74.6989H61.015V73.2397ZM61.0798 75.7273H62.6081V82.4308H61.0798V75.7273Z" fill="#58595B"/>
<path id="Vector_6" d="M68.4335 82.4337V81.6092C67.9796 82.156 67.2831 82.5754 66.2737 82.5754C65.0105 82.5754 63.8995 81.8529 63.8995 80.5071V80.4816C63.8995 78.997 65.0499 78.2858 66.6036 78.2858C67.4128 78.2858 67.9316 78.3991 68.4476 78.5635V78.436C68.4476 77.5095 67.8668 77.0023 66.8038 77.0023C66.0594 77.0023 65.5011 77.1667 64.8949 77.4217L64.4775 76.1892C65.2107 75.8577 65.9297 75.631 67.0181 75.631C68.989 75.631 69.9505 76.6737 69.9505 78.4615V82.4365H68.4335V82.4337ZM68.4702 79.6259C68.0783 79.4729 67.5341 79.3596 66.9419 79.3596C65.9804 79.3596 65.4137 79.7534 65.4137 80.3994V80.4249C65.4137 81.0596 65.9832 81.4166 66.7023 81.4166C67.7145 81.4166 68.4702 80.8442 68.4702 80.0084V79.6259Z" fill="#58595B"/>
<path id="Vector_7" d="M71.1517 79.1187V79.0932C71.1517 77.1893 72.618 75.5885 74.6143 75.5885C75.8775 75.5885 76.6614 76.0588 77.2817 76.7445L76.3343 77.7729C75.8662 77.2771 75.3728 76.9343 74.603 76.9343C73.4921 76.9343 72.6828 77.9004 72.6828 79.0677V79.0932C72.6828 80.286 73.5033 81.2522 74.6792 81.2522C75.3982 81.2522 75.9311 80.9094 76.4104 80.4135L77.3325 81.3287C76.6755 82.0653 75.9057 82.5866 74.603 82.5866C72.6151 82.5838 71.1517 81.0227 71.1517 79.1187Z" fill="#58595B"/>
<path id="Vector_8" d="M78.5054 73.2397H80.1493V74.6989H78.5054V73.2397ZM78.5675 75.7273H80.0957V82.4308H78.5675V75.7273Z" fill="#58595B"/>
<path id="Vector_9" d="M81.4745 79.1188V79.0933C81.4745 77.1751 82.9915 75.5885 85.0386 75.5885C87.0857 75.5885 88.5886 77.1496 88.5886 79.0678V79.0933C88.5886 80.9972 87.0716 82.5838 85.0132 82.5838C82.9774 82.5838 81.4745 81.0227 81.4745 79.1188ZM87.0603 79.1188V79.0933C87.0603 77.9118 86.2144 76.9343 85.0132 76.9343C83.7867 76.9343 83.0028 77.9005 83.0028 79.0678V79.0933C83.0028 80.2606 83.8487 81.2522 85.0386 81.2522C86.2765 81.2522 87.0603 80.2747 87.0603 79.1188ZM85.7717 72.7949L87.1618 73.4182L85.6195 74.8774H84.4324L85.7717 72.7949Z" fill="#58595B"/>
<path id="Vector_10" d="M89.8913 75.7274H91.4196V76.7672C91.8482 76.1325 92.4685 75.5857 93.5033 75.5857C95.0062 75.5857 95.8775 76.6028 95.8775 78.164V82.4308H94.3492V78.6229C94.3492 77.5831 93.8304 76.9853 92.9224 76.9853C92.0371 76.9853 91.4196 77.6086 91.4196 78.6484V82.4337H89.8913V75.7274Z" fill="#58595B"/>
<path id="Vector_11" d="M104.32 73.4806H105.76L109.652 82.4337H108.008L107.111 80.2889H102.929L102.019 82.4337H100.426L104.32 73.4806ZM106.544 78.9034L105.016 75.3477L103.499 78.9034H106.544Z" fill="#58595B"/>
<path id="Vector_12" d="M110.74 75.7273H112.268V77.2375C112.686 76.2345 113.455 75.5488 114.631 75.5998V77.2261H114.544C113.204 77.2261 112.268 78.1016 112.268 79.8809V82.4337H110.74V75.7273Z" fill="#58595B"/>
<path id="Vector_13" d="M115.502 83.6888L116.072 82.5328C116.78 82.9777 117.538 83.244 118.449 83.244C119.814 83.244 120.558 82.5328 120.558 81.187V80.6657C120.003 81.3882 119.306 81.8982 118.206 81.8982C116.639 81.8982 115.172 80.7309 115.172 78.7618V78.7363C115.172 76.7558 116.65 75.5857 118.206 75.5857C119.332 75.5857 120.025 76.107 120.544 76.7275V75.7245H122.072V81.0567C122.072 82.1872 121.782 83.0258 121.226 83.584C120.62 84.1931 119.684 84.485 118.486 84.485C117.386 84.4906 116.362 84.2101 115.502 83.6888ZM120.569 78.7646V78.7391C120.569 77.6341 119.673 76.8862 118.61 76.8862C117.549 76.8862 116.715 77.6228 116.715 78.7278V78.7533C116.715 79.8582 117.561 80.6062 118.61 80.6062C119.673 80.6034 120.569 79.8412 120.569 78.7646Z" fill="#58595B"/>
<path id="Vector_14" d="M123.364 79.1046V79.0791C123.364 77.161 124.714 75.5885 126.623 75.5885C128.746 75.5885 129.821 77.2658 129.821 79.1952C129.821 79.3341 129.809 79.4729 129.795 79.6259H124.892C125.055 80.7167 125.828 81.3287 126.812 81.3287C127.557 81.3287 128.089 81.0482 128.62 80.5297L129.516 81.3287C128.885 82.0908 128.013 82.5866 126.787 82.5866C124.855 82.5838 123.364 81.1757 123.364 79.1046ZM128.304 78.6116C128.202 77.6199 127.621 76.8465 126.609 76.8465C125.673 76.8465 125.016 77.5689 124.878 78.6116H128.304Z" fill="#58595B"/>
<path id="Vector_15" d="M131.109 75.7274H132.638V76.7672C133.066 76.1325 133.686 75.5857 134.721 75.5857C136.224 75.5857 137.095 76.6028 137.095 78.164V82.4308H135.567V78.6229C135.567 77.5831 135.048 76.9853 134.14 76.9853C133.255 76.9853 132.638 77.6086 132.638 78.6484V82.4337H131.109V75.7274Z" fill="#58595B"/>
<path id="Vector_16" d="M139.007 80.5779V77.0477H138.161V75.7274H139.007V73.8857H140.535V75.7274H142.329V77.0477H140.535V80.3371C140.535 80.9349 140.84 81.1757 141.356 81.1757C141.697 81.1757 142.002 81.0992 142.303 80.9462V82.2042C141.923 82.4195 141.494 82.547 140.927 82.547C139.802 82.547 139.007 82.0512 139.007 80.5779Z" fill="#58595B"/>
<path id="Vector_17" d="M143.643 73.2397H145.287V74.6989H143.643V73.2397ZM143.708 75.7273H145.236V82.4308H143.708V75.7273Z" fill="#58595B"/>
<path id="Vector_18" d="M146.981 75.7274H148.51V76.7672C148.938 76.1325 149.558 75.5857 150.593 75.5857C152.096 75.5857 152.97 76.6028 152.97 78.164V82.4308H151.442V78.6229C151.442 77.5831 150.923 76.9853 150.015 76.9853C149.13 76.9853 148.512 77.6086 148.512 78.6484V82.4337H146.984V75.7274H146.981Z" fill="#58595B"/>
<path id="Vector_19" d="M158.643 82.4337V81.6092C158.189 82.156 157.493 82.5754 156.484 82.5754C155.22 82.5754 154.109 81.8529 154.109 80.5071V80.4816C154.109 78.997 155.26 78.2858 156.813 78.2858C157.623 78.2858 158.139 78.3991 158.658 78.5635V78.436C158.658 77.5095 158.077 77.0023 157.014 77.0023C156.269 77.0023 155.711 77.1667 155.105 77.4217L154.687 76.1892C155.421 75.8577 156.14 75.631 157.228 75.631C159.199 75.631 160.16 76.6737 160.16 78.4615V82.4365H158.643V82.4337ZM158.68 79.6259C158.288 79.4729 157.744 79.3596 157.152 79.3596C156.19 79.3596 155.624 79.7534 155.624 80.3994V80.4249C155.624 81.0596 156.193 81.4166 156.912 81.4166C157.922 81.4166 158.68 80.8442 158.68 80.0084V79.6259Z" fill="#58595B"/>
<path id="Vector_20" d="M29.8434 92.9762V92.9507C29.8434 90.7294 31.3463 89.4715 32.9395 89.4715C34.0391 89.4715 34.7328 90.0296 35.2149 90.6529V87.0462H36.7432V96.3138H35.2149V95.1975C34.7215 95.8945 34.0278 96.4555 32.9395 96.4555C31.3717 96.4555 29.8434 95.1975 29.8434 92.9762ZM35.2375 92.9762V92.9507C35.2375 91.6559 34.3267 90.8059 33.3032 90.8059C32.2543 90.8059 31.383 91.6191 31.383 92.9507V92.9762C31.383 94.271 32.2684 95.121 33.3032 95.121C34.3296 95.121 35.2375 94.2597 35.2375 92.9762Z" fill="#58595B"/>
<path id="Vector_21" d="M38.0318 92.9876V92.9621C38.0318 91.0439 39.3824 89.4715 41.2913 89.4715C43.4146 89.4715 44.4889 91.1488 44.4889 93.0782C44.4889 93.2171 44.4776 93.3559 44.4635 93.5089H39.5601C39.7236 94.5997 40.4962 95.2117 41.4803 95.2117C42.2247 95.2117 42.7576 94.9312 43.2877 94.4127L44.1843 95.2117C43.5527 95.9738 42.6814 96.4696 41.4549 96.4696C39.5206 96.4668 38.0318 95.0587 38.0318 92.9876ZM42.9719 92.4946C42.8704 91.5029 42.2895 90.7295 41.2801 90.7295C40.3439 90.7295 39.6869 91.4519 39.5488 92.4946H42.9719Z" fill="#58595B"/>
<path id="Vector_22" d="M49.491 87.4287H51.1461L53.8389 91.6304L56.5289 87.4287H58.184V96.3167H56.6304V89.9418L53.8389 94.1322H53.7882L51.022 89.9673V96.3167H49.4938V87.4287H49.491Z" fill="#58595B"/>
<path id="Vector_23" d="M59.6643 93.0017V92.9762C59.6643 91.0581 61.1813 89.4715 63.2284 89.4715C65.2755 89.4715 66.7784 91.0326 66.7784 92.9507V92.9762C66.7784 94.8802 65.2614 96.4668 63.203 96.4668C61.1672 96.4668 59.6643 94.9057 59.6643 93.0017ZM65.2501 93.0017V92.9762C65.2501 91.7948 64.4042 90.8173 63.203 90.8173C61.9765 90.8173 61.1954 91.7834 61.1954 92.9507V92.9762C61.1954 94.1435 62.0413 95.1352 63.2284 95.1352C64.4662 95.1352 65.2501 94.1577 65.2501 93.0017Z" fill="#58595B"/>
<path id="Vector_24" d="M68.3969 94.4608V90.9306H67.551V89.6103H68.3969V87.7687H69.9251V89.6103H71.7184V90.9306H69.9251V94.22C69.9251 94.8178 70.2297 95.0587 70.7457 95.0587C71.0868 95.0587 71.3914 94.9822 71.6931 94.8292V96.0871C71.3152 96.3025 70.8838 96.43 70.3171 96.43C69.192 96.43 68.3969 95.9341 68.3969 94.4608Z" fill="#58595B"/>
<path id="Vector_25" d="M72.4516 93.0017V92.9762C72.4516 91.0581 73.9686 89.4715 76.0157 89.4715C78.0628 89.4715 79.5656 91.0326 79.5656 92.9507V92.9762C79.5656 94.8802 78.0487 96.4668 75.9903 96.4668C73.9545 96.4668 72.4516 94.9057 72.4516 93.0017ZM78.0374 93.0017V92.9762C78.0374 91.7948 77.1915 90.8173 75.9903 90.8173C74.7637 90.8173 73.9799 91.7834 73.9799 92.9507V92.9762C73.9799 94.1435 74.8258 95.1352 76.0157 95.1352C77.2535 95.1352 78.0374 94.1577 78.0374 93.0017Z" fill="#58595B"/>
<path id="Vector_26" d="M79.856 89.6103H81.4999L83.2932 94.5373L85.1006 89.6103H86.705L83.9756 96.3648H82.5996L79.856 89.6103Z" fill="#58595B"/>
<path id="Vector_27" d="M87.0096 92.9876V92.9621C87.0096 91.0439 88.363 89.4715 90.2691 89.4715C92.3924 89.4715 93.4666 91.1488 93.4666 93.0782C93.4666 93.2171 93.4554 93.3559 93.4413 93.5089H88.5379C88.7014 94.5997 89.474 95.2117 90.458 95.2117C91.2024 95.2117 91.7354 94.9312 92.2655 94.4127L93.1621 95.2117C92.5305 95.9738 91.6592 96.4696 90.4327 96.4696C88.5012 96.4668 87.0096 95.0587 87.0096 92.9876ZM91.9497 92.4946C91.8482 91.5029 91.2673 90.7295 90.255 90.7295C89.3189 90.7295 88.6619 91.4519 88.5238 92.4946H91.9497Z" fill="#58595B"/>
<path id="Vector_28" d="M94.7552 87.0462H96.2835V90.6529C96.712 90.0183 97.3324 89.4715 98.3672 89.4715C99.8701 89.4715 100.741 90.4886 100.741 92.0497V96.3166H99.2131V92.5059C99.2131 91.4661 98.6943 90.8683 97.7863 90.8683C96.901 90.8683 96.2835 91.4916 96.2835 92.5314V96.3166H94.7552V87.0462Z" fill="#58595B"/>
<path id="Vector_29" d="M102.425 89.6103H103.953V96.3138H102.425V89.6103ZM103.866 86.6779L105.256 87.3012L103.713 88.7604H102.526L103.866 86.6779Z" fill="#58595B"/>
<path id="Vector_30" d="M105.332 93.0017V92.9762C105.332 91.0723 106.798 89.4715 108.794 89.4715C110.058 89.4715 110.841 89.9418 111.462 90.6275L110.514 91.6559C110.046 91.1601 109.553 90.8173 108.783 90.8173C107.672 90.8173 106.863 91.7834 106.863 92.9507V92.9762C106.863 94.169 107.683 95.1352 108.859 95.1352C109.578 95.1352 110.111 94.7924 110.59 94.2965L111.513 95.2117C110.856 95.9483 110.086 96.4696 108.783 96.4696C106.798 96.4668 105.332 94.9057 105.332 93.0017Z" fill="#58595B"/>
<path id="Vector_31" d="M112.584 93.8772V89.6103H114.112V93.4182C114.112 94.4608 114.631 95.0558 115.539 95.0558C116.424 95.0558 117.042 94.4325 117.042 93.3927V89.6103H118.57V96.3138H117.042V95.2711C116.613 95.9058 115.993 96.4526 114.958 96.4526C113.455 96.4554 112.584 95.4383 112.584 93.8772Z" fill="#58595B"/>
<path id="Vector_32" d="M120.33 87.0462H121.858V96.3138H120.33V87.0462Z" fill="#58595B"/>
<path id="Vector_33" d="M123.237 93.0017V92.9762C123.237 91.0581 124.754 89.4715 126.801 89.4715C128.848 89.4715 130.351 91.0326 130.351 92.9507V92.9762C130.351 94.8802 128.834 96.4668 126.775 96.4668C124.74 96.4668 123.237 94.9057 123.237 93.0017ZM128.823 93.0017V92.9762C128.823 91.7948 127.977 90.8173 126.775 90.8173C125.549 90.8173 124.765 91.7834 124.765 92.9507V92.9762C124.765 94.1435 125.611 95.1352 126.801 95.1352C128.039 95.1352 128.823 94.1577 128.823 93.0017Z" fill="#58595B"/>
<path id="Vector_34" d="M131.109 95.4383L131.792 94.3957C132.511 94.9425 133.295 95.2202 133.977 95.2202C134.634 95.2202 135.015 94.9425 135.015 94.4977V94.4722C135.015 93.9509 134.307 93.7752 133.523 93.5315C132.539 93.251 131.439 92.8459 131.439 91.5624V91.5369C131.439 90.2676 132.488 89.4941 133.816 89.4941C134.651 89.4941 135.562 89.786 136.269 90.2563L135.663 91.3471C135.017 90.9533 134.335 90.7124 133.78 90.7124C133.185 90.7124 132.843 90.9929 132.843 91.3868V91.4123C132.843 91.8939 133.562 92.0979 134.346 92.3529C135.319 92.6561 136.419 93.1009 136.419 94.3078V94.3334C136.419 95.7415 135.333 96.4413 133.943 96.4413C132.993 96.4413 131.944 96.0985 131.109 95.4383Z" fill="#58595B"/>
</g>
<g id="Group_3">
<path id="Vector_35" d="M219.396 53.8093C219.396 48.3298 215.42 46.1396 208.555 44.2045C205.12 43.1732 203.053 42.5527 203.053 40.9094V40.7904C203.053 39.813 203.86 38.7647 206.118 38.7647C208.591 38.7647 212.054 39.8158 215.257 41.5186L218.59 35.3336C215.099 33.186 210.624 31.9648 206.234 31.9648C198.844 31.9648 194.067 35.8889 194.067 41.9634V42.0824C194.067 47.7801 198.037 49.939 204.9 51.7438C208.301 52.7015 210.351 53.2766 210.351 54.9256V55.0417C210.351 56.0447 209.778 57.2404 207.052 57.2404C203.676 57.2404 199.805 55.9909 196.354 53.8008L192.722 59.711C196.808 62.547 201.731 64.0402 206.992 64.0402C214.758 64.0402 219.393 60.2578 219.393 53.9283V53.8093H219.396Z" fill="#ED1C24"/>
<path id="Vector_36" d="M150.306 63.9382C153.029 63.9382 155.514 63.38 157.513 62.3204V54.6507C156.233 55.1806 155.015 55.4384 153.811 55.4384C151.434 55.4384 150.277 54.2371 150.277 51.7693V40.5383H158.79V32.5655H150.277V24.5332H140.183V32.5655H129.609V24.5332H119.605V55.7557C120.166 61.3372 123.355 63.9382 129.64 63.9382C132.361 63.9382 134.845 63.38 136.847 62.3204V54.6507C135.564 55.1806 134.346 55.4384 133.142 55.4384C130.763 55.4384 129.609 54.2371 129.609 51.7693V40.5383H140.183V53.9396C140.183 60.7593 143.4 63.9382 150.306 63.9382Z" fill="#ED1C24"/>
<path id="Vector_37" d="M70.6103 31.9082C66.5528 31.9082 63.4089 33.4467 60.4228 36.8976L59.9407 37.4529L59.6051 36.8012C57.981 33.6478 54.9047 31.911 50.9431 31.911C47.41 31.911 44.4635 33.4977 41.9399 36.7616L41.0488 37.9119V36.6341C40.7951 34.3816 38.6239 32.6193 35.9847 32.6193V32.6165H30.9544V63.3432H41.0488V46.6015C41.0488 43.0372 42.9606 40.8245 46.0397 40.8245C49.0567 40.8245 50.8585 42.9834 50.8585 46.6015V63.3432H60.9529V46.6015C60.9529 43.0911 62.9352 40.8245 66.003 40.8245C69.02 40.8245 70.819 42.9834 70.819 46.6015V63.3432H80.9134V43.0231C80.9106 35.9598 77.1548 31.9082 70.6103 31.9082Z" fill="#ED1C24"/>
<path id="Vector_38" d="M176.39 32.0413C176.125 32.0413 175.863 32.0498 175.604 32.0612C169.691 32.4691 165.019 37.4132 165.019 43.4565C165.019 47.9529 167.607 51.843 171.366 53.7073C169.84 52.3246 168.876 50.3328 168.876 48.1059C168.876 43.9382 172.24 40.5581 176.388 40.5581C180.538 40.5581 183.902 43.9382 183.902 48.1059C183.902 52.2765 180.538 55.6565 176.388 55.6565V55.6622C169.025 55.6622 162.828 50.6587 160.97 43.8532C160.6 45.2103 160.397 46.6354 160.397 48.1087C160.397 56.9797 167.556 64.1733 176.385 64.1733C185.216 64.1733 192.372 56.9797 192.372 48.1087C192.378 39.2321 185.222 32.0413 176.39 32.0413Z" fill="#ED1C24"/>
<path id="Vector_39" d="M100.626 32.0413C100.361 32.0413 100.098 32.0498 99.8391 32.0612C93.9262 32.4691 89.254 37.4132 89.254 43.4565C89.254 47.9529 91.8425 51.843 95.6011 53.7073C94.0757 52.3246 93.1113 50.3328 93.1113 48.1059C93.1113 43.9382 96.4752 40.5581 100.623 40.5581C104.774 40.5581 108.137 43.9382 108.137 48.1059C108.137 52.2765 104.774 55.6565 100.623 55.6565V55.6622C93.2608 55.6622 87.0631 50.6587 85.205 43.8532C84.8356 45.2103 84.6326 46.6354 84.6326 48.1087C84.6326 56.9797 91.7917 64.1733 100.62 64.1733C109.451 64.1733 116.608 56.9797 116.608 48.1087C116.613 39.2321 109.457 32.0413 100.626 32.0413Z" fill="#ED1C24"/>
</g>
</g>
</g>
<defs>
<clipPath id="clip0_42_1882">
<rect width="249" height="121" fill="white"/>
</clipPath>
</defs>
</svg>
