<svg width="49" height="50" viewBox="0 0 49 50" fill="none" xmlns="http://www.w3.org/2000/svg">
<g id="Graphic_Elements" clip-path="url(#clip0_71_382)">
<path id="Vector" d="M24.5263 4.67421C31.0622 4.67421 31.8339 4.69724 34.4137 4.81817C36.7977 4.92758 38.0934 5.32492 38.9572 5.65891C40.0973 6.10232 40.915 6.6321 41.7731 7.49012C42.6311 8.34814 43.1609 9.16009 43.6043 10.306C43.9383 11.1698 44.3356 12.4655 44.445 14.8495C44.5602 17.4293 44.589 18.2067 44.589 24.7369C44.589 31.267 44.5659 32.0444 44.445 34.6242C44.3356 37.0083 43.9383 38.3039 43.6043 39.1677C43.1609 40.3079 42.6311 41.1256 41.7731 41.9836C40.915 42.8416 40.1031 43.3714 38.9572 43.8148C38.0934 44.1488 36.7977 44.5462 34.4137 44.6556C31.8339 44.7707 31.0622 44.7995 24.5263 44.7995C17.9904 44.7995 17.2188 44.7765 14.6389 44.6556C12.2549 44.5462 10.9593 44.1488 10.0955 43.8148C8.9553 43.3714 8.13759 42.8416 7.27957 41.9836C6.42155 41.1256 5.89177 40.3136 5.44836 39.1677C5.11437 38.3039 4.71703 37.0083 4.60762 34.6242C4.49245 32.0444 4.46365 31.267 4.46365 24.7369C4.46365 18.2067 4.48669 17.4293 4.60762 14.8495C4.71703 12.4655 5.11437 11.1698 5.44836 10.306C5.89177 9.16585 6.42155 8.34814 7.27957 7.49012C8.13759 6.6321 8.94954 6.10232 10.0955 5.65891C10.9593 5.32492 12.2549 4.92758 14.6389 4.81817C17.2188 4.703 17.9962 4.67421 24.5263 4.67421ZM24.5263 0.263184C17.881 0.263184 17.046 0.291976 14.4374 0.412905C11.8346 0.533834 10.0552 0.942688 8.49461 1.55309C6.88799 2.18077 5.52322 3.01575 4.15845 4.37476C2.79944 5.73377 1.9587 7.09854 1.33678 8.71092C0.732138 10.2657 0.317525 12.0451 0.196596 14.6537C0.0756676 17.2623 0.046875 18.0973 0.046875 24.7426C0.046875 31.388 0.0756676 32.2229 0.196596 34.8315C0.317525 37.4344 0.72638 39.2138 1.33678 40.7743C1.96446 42.381 2.79944 43.7457 4.15845 45.1105C5.51746 46.4695 6.88223 47.3102 8.49461 47.9322C10.0494 48.5368 11.8288 48.9514 14.4374 49.0724C17.046 49.1933 17.881 49.2221 24.5263 49.2221C31.1716 49.2221 32.0066 49.1933 34.6152 49.0724C37.2181 48.9514 38.9975 48.5426 40.558 47.9322C42.1646 47.3045 43.5294 46.4695 44.8942 45.1105C46.2532 43.7515 47.0939 42.3867 47.7159 40.7743C48.3205 39.2195 48.7351 37.4402 48.856 34.8315C48.977 32.2229 49.0058 31.388 49.0058 24.7426C49.0058 18.0973 48.977 17.2623 48.856 14.6537C48.7351 12.0509 48.3263 10.2715 47.7159 8.71092C47.0882 7.1043 46.2532 5.73953 44.8942 4.37476C43.5352 3.01575 42.1704 2.17501 40.558 1.55309C39.0032 0.948447 37.2238 0.533834 34.6152 0.412905C32.0066 0.291976 31.1716 0.263184 24.5263 0.263184Z" fill="#5F605D"/>
<path id="Vector_2" d="M24.5265 12.1718C17.5875 12.1718 11.9614 17.7978 11.9614 24.7368C11.9614 31.6758 17.5875 37.3019 24.5265 37.3019C31.4655 37.3019 37.0916 31.6758 37.0916 24.7368C37.0916 17.7978 31.4655 12.1718 24.5265 12.1718ZM24.5265 32.8966C20.0233 32.8966 16.3667 29.2457 16.3667 24.7368C16.3667 20.2279 20.0176 16.577 24.5265 16.577C29.0354 16.577 32.6863 20.2279 32.6863 24.7368C32.6863 29.2457 29.0354 32.8966 24.5265 32.8966Z" fill="#5F605D"/>
<path id="Vector_3" d="M37.5926 14.6077C39.2146 14.6077 40.5294 13.2928 40.5294 11.6709C40.5294 10.0489 39.2146 8.73401 37.5926 8.73401C35.9706 8.73401 34.6558 10.0489 34.6558 11.6709C34.6558 13.2928 35.9706 14.6077 37.5926 14.6077Z" fill="#5F605D"/>
</g>
<defs>
<clipPath id="clip0_71_382">
<rect width="48.9474" height="48.9474" fill="white" transform="translate(0.0527344 0.263184)"/>
</clipPath>
</defs>
</svg>
