<svg width="560" height="651" viewBox="0 0 560 651" fill="none" xmlns="http://www.w3.org/2000/svg">
<path d="M325.5 0C320.104 0 314.765 0.172222 309.483 0.401852C189.1 8.66852 93.9759 108.844 93.9759 231.294C93.9759 322.4 146.676 401.22 223.2 438.994C192.143 410.98 172.509 370.622 172.509 325.5C172.509 241.054 240.996 172.567 325.443 172.567C409.946 172.567 478.433 241.054 478.433 325.5C478.433 410.004 409.946 478.491 325.443 478.491V478.606C175.552 478.606 49.3704 377.224 11.5389 239.331C4.07593 266.772 0 295.648 0 325.5C0 505.243 145.757 651 325.5 651C505.3 651 651 505.243 651 325.5C651 145.757 505.3 0 325.5 0Z" fill="white" fill-opacity="0.2"/>
</svg>
