<svg width="53" height="53" viewBox="0 0 53 53" fill="none" xmlns="http://www.w3.org/2000/svg">
<g id="Graphic_Elements" clip-path="url(#clip0_71_386)">
<g id="WA Logo">
<path id="Vector" fill-rule="evenodd" clip-rule="evenodd" d="M44.6036 7.5847C39.6982 2.69544 33.1658 0 26.2145 0C11.887 0 0.224627 11.6037 0.218556 25.8665C0.218556 30.4234 1.41454 34.8775 3.69116 38.7998L0 52.2105L13.7812 48.6146C17.5755 50.6755 21.8556 51.7633 26.2024 51.7633H26.2145C40.5421 51.7633 52.2045 40.1596 52.2105 25.8907C52.2105 18.9769 49.5089 12.48 44.6036 7.59074V7.5847ZM26.2145 47.3877H26.2085C22.3291 47.3877 18.5287 46.3482 15.2139 44.3901L14.4247 43.9248L6.24705 46.0582L8.43261 38.1229L7.91657 37.307C5.7553 33.8864 4.61395 29.9278 4.61395 25.8665C4.61395 14.009 14.3093 4.36347 26.2328 4.36347C32.0063 4.36347 37.4277 6.60564 41.5074 10.6669C45.5871 14.7343 47.8333 20.1312 47.8273 25.8786C47.8273 37.7361 38.1319 47.3817 26.2206 47.3817L26.2145 47.3877ZM38.0651 31.2816C37.4155 30.9552 34.2222 29.396 33.6272 29.1784C33.0323 28.9609 32.6012 28.8521 32.1641 29.5048C31.7331 30.1514 30.4885 31.6079 30.106 32.037C29.7296 32.4661 29.3472 32.5205 28.6976 32.2002C28.048 31.8739 25.9535 31.197 23.4765 28.9911C21.5459 27.2747 20.2407 25.1594 19.8643 24.5128C19.4879 23.8661 19.8218 23.5156 20.1496 23.1953C20.441 22.9052 20.7992 22.4398 21.121 22.0651C21.4427 21.6904 21.552 21.4185 21.7706 20.9894C21.9891 20.5603 21.8799 20.1795 21.7159 19.8592C21.552 19.5329 20.2528 16.3539 19.7125 15.0606C19.1843 13.7975 18.6501 13.9728 18.2494 13.9486C17.873 13.9305 17.4359 13.9244 17.0048 13.9244C16.5738 13.9244 15.8696 14.0876 15.2746 14.7343C14.6797 15.3809 13.0041 16.9462 13.0041 20.1251C13.0041 23.3041 15.3293 26.3802 15.6571 26.8093C15.9788 27.2384 20.2346 33.7715 26.7549 36.5697C28.303 37.2345 29.5172 37.6334 30.4582 37.9295C32.0123 38.4191 33.4329 38.3526 34.55 38.1834C35.8006 37.996 38.3929 36.6181 38.9333 35.1072C39.4736 33.5963 39.4736 32.303 39.3097 32.031C39.1458 31.759 38.7147 31.6019 38.0651 31.2755V31.2816Z" fill="#5F605D"/>
</g>
</g>
<defs>
<clipPath id="clip0_71_386">
<rect width="52.2105" height="52.2105" fill="white"/>
</clipPath>
</defs>
</svg>
